<?xml version="1.0" encoding="UTF-8"?>
<!DOCTYPE svg PUBLIC "-//W3C//DTD SVG 1.1//EN" "http://www.w3.org/Graphics/SVG/1.1/DTD/svg11.dtd">
<svg xmlns="http://www.w3.org/2000/svg" version="1.1" width="85px" height="75px" style="shape-rendering:geometricPrecision; text-rendering:geometricPrecision; image-rendering:optimizeQuality; fill-rule:evenodd; clip-rule:evenodd" xmlns:xlink="http://www.w3.org/1999/xlink">
<g><path style="opacity:0.884" fill="#6e6c6d" d="M 43.5,5.5 C 42.5023,9.50547 40.5023,12.8388 37.5,15.5C 27.1452,15.8319 16.8119,15.4986 6.5,14.5C 7.83333,11.8333 9.16667,9.16667 10.5,6.5C 21.4798,5.50122 32.4798,5.16789 43.5,5.5 Z"/></g>
<g><path style="opacity:0.895" fill="#fcfcfc" d="M 43.5,5.5 C 55.8378,5.33346 68.1712,5.50012 80.5,6C 78.8333,9 77.1667,12 75.5,15C 66.8333,15.3333 58.1667,15.6667 49.5,16C 47.9479,18.9432 46.2812,21.7765 44.5,24.5C 42.0002,27.4937 40.0002,30.827 38.5,34.5C 36.1667,38.5 33.8333,42.5 31.5,46.5C 29.127,48.5792 27.7936,51.2459 27.5,54.5C 24.2744,59.2708 21.2744,64.2708 18.5,69.5C 14.5,70.8333 10.5,70.8333 6.5,69.5C 9.44642,64.6049 12.1131,59.6049 14.5,54.5C 17.6543,52.8761 19.321,50.2094 19.5,46.5C 20.3382,46.1583 20.6716,45.4916 20.5,44.5C 21.3382,44.1583 21.6716,43.4916 21.5,42.5C 22.9063,42.0269 23.573,41.0269 23.5,39.5C 24.3382,39.1583 24.6716,38.4916 24.5,37.5C 25.3382,37.1583 25.6716,36.4916 25.5,35.5C 26.9063,35.0269 27.573,34.0269 27.5,32.5C 28.3382,32.1583 28.6716,31.4916 28.5,30.5C 30.2503,29.3406 31.2503,27.674 31.5,25.5C 32.3382,25.1583 32.6716,24.4916 32.5,23.5C 33.9063,23.0269 34.573,22.0269 34.5,20.5C 35.3382,20.1583 35.6716,19.4916 35.5,18.5C 36.4013,17.7095 37.0679,16.7095 37.5,15.5C 40.5023,12.8388 42.5023,9.50547 43.5,5.5 Z"/></g>
<g><path style="opacity:0.854" fill="#fefefe" d="M 35.5,18.5 C 34.6618,18.8417 34.3284,19.5084 34.5,20.5C 33.0937,20.9731 32.427,21.9731 32.5,23.5C 31.6618,23.8417 31.3284,24.5084 31.5,25.5C 29.7497,26.6594 28.7497,28.326 28.5,30.5C 27.6618,30.8417 27.3284,31.5084 27.5,32.5C 26.0937,32.9731 25.427,33.9731 25.5,35.5C 24.6618,35.8417 24.3284,36.5084 24.5,37.5C 23.6618,37.8417 23.3284,38.5084 23.5,39.5C 22.0937,39.9731 21.427,40.9731 21.5,42.5C 20.6618,42.8417 20.3284,43.5084 20.5,44.5C 19.6618,44.8417 19.3284,45.5084 19.5,46.5C 17.1878,48.1455 15.1878,50.1455 13.5,52.5C 11.5141,48.7169 10.6807,44.7169 11,40.5C 14.9668,33.1866 18.9668,25.8532 23,18.5C 27.2669,17.178 31.4336,17.178 35.5,18.5 Z"/></g>
<g><path style="opacity:0.893" fill="#706e6f" d="M 44.5,24.5 C 49.3633,24.1805 54.03,24.5139 58.5,25.5C 57.2307,29.0536 55.2307,32.0536 52.5,34.5C 47.8333,34.5 43.1667,34.5 38.5,34.5C 40.0002,30.827 42.0002,27.4937 44.5,24.5 Z"/></g>
<g><path style="opacity:0.868" fill="#f9fafb" d="M 58.5,25.5 C 61.0401,27.8861 63.0401,30.7194 64.5,34C 60.9162,41.2474 56.9162,48.2474 52.5,55C 48.6425,55.8099 44.9758,55.6433 41.5,54.5C 43.873,52.4208 45.2064,49.7541 45.5,46.5C 47.8184,42.5355 50.1517,38.5355 52.5,34.5C 55.2307,32.0536 57.2307,29.0536 58.5,25.5 Z"/></g>
<g><path style="opacity:0.903" fill="#f1f2f4" d="M 44.5,46.5 C 42.127,48.5792 40.7936,51.2459 40.5,54.5C 36.3989,55.7908 32.3989,55.7908 28.5,54.5C 30.873,52.4208 32.2064,49.7541 32.5,46.5C 36.6011,45.2092 40.6011,45.2092 44.5,46.5 Z"/></g>
<g><path style="opacity:0.811" fill="#787778" d="M 31.5,46.5 C 31.8333,46.5 32.1667,46.5 32.5,46.5C 32.2064,49.7541 30.873,52.4208 28.5,54.5C 28.1667,54.5 27.8333,54.5 27.5,54.5C 27.7936,51.2459 29.127,48.5792 31.5,46.5 Z"/></g>
<g><path style="opacity:0.808" fill="#797779" d="M 44.5,46.5 C 44.8333,46.5 45.1667,46.5 45.5,46.5C 45.2064,49.7541 43.873,52.4208 41.5,54.5C 41.1667,54.5 40.8333,54.5 40.5,54.5C 40.7936,51.2459 42.127,48.5792 44.5,46.5 Z"/></g>
<g><path style="opacity:0.872" fill="#737172" d="M 19.5,46.5 C 19.321,50.2094 17.6543,52.8761 14.5,54.5C 14.1667,53.8333 13.8333,53.1667 13.5,52.5C 15.1878,50.1455 17.1878,48.1455 19.5,46.5 Z"/></g>
</svg>
